<?xml version="1.0" encoding="UTF-8" standalone="no"?>
<svg
   version="1.1"
   width="24"
   height="24"
   viewBox="0 0 24 24"
   id="svg4"
   sodipodi:docname="file.svg"
   inkscape:version="1.1 (c68e22c387, 2021-05-23)"
   xmlns:inkscape="http://www.inkscape.org/namespaces/inkscape"
   xmlns:sodipodi="http://sodipodi.sourceforge.net/DTD/sodipodi-0.dtd"
   xmlns="http://www.w3.org/2000/svg"
   xmlns:svg="http://www.w3.org/2000/svg">
  <defs
     id="defs8" />
  <sodipodi:namedview
     id="namedview6"
     pagecolor="#505050"
     bordercolor="#eeeeee"
     borderopacity="1"
     inkscape:pageshadow="0"
     inkscape:pageopacity="0"
     inkscape:pagecheckerboard="0"
     showgrid="false"
     inkscape:zoom="90.509668"
     inkscape:cx="12.81631"
     inkscape:cy="6.0877474"
     inkscape:window-width="1857"
     inkscape:window-height="1057"
     inkscape:window-x="2552"
     inkscape:window-y="1072"
     inkscape:window-maximized="1"
     inkscape:current-layer="svg4" />
  <path
     d="M13,9V3.5L18.5,9M6,2C4.89,2 4,2.89 4,4V20A2,2 0 0,0 6,22H18A2,2 0 0,0 20,20V8L14,2H6Z"
     id="path2"
     style="fill:#ffffff" />
  <path
     style="fill:#ffffff;stroke:none;stroke-width:0.0078125"
     d="M 4.3125,6.8139313 V 2.9286438 L 4.353516,2.8691458 C 4.495174,2.6636532 4.6837537,2.4771682 4.8867187,2.3418654 5.1391288,2.1736011 5.3942871,2.0755531 5.7202848,2.0215568 5.7953248,2.0091276 6.0785319,2.008072 9.8983534,2.0059848 L 13.995926,2.0037457 16.997962,5.0057753 20,8.0078048 v 1.345707 1.3457072 H 12.15625 4.3125 Z M 18.5,8.9980427 c 0,-0.00322 -1.2375,-1.2433598 -2.75,-2.7558552 L 13,3.4921959 V 6.248051 9.0039062 h 2.75 c 1.5125,0 2.75,-0.00264 2.75,-0.00586 z"
     id="path215" />
  <path
     style="fill:#ffffff;stroke:#ffffff;stroke-width:0.03125"
     d="M 5.5695262,21.936818 C 4.871264,21.785171 4.2789881,21.209527 4.072545,20.481876 4.018134,20.290094 4.015625,19.916884 4.015625,12.015625 c 0,-6.9001616 0.00708,-8.2940184 0.042875,-8.4375 C 4.1603571,3.1698078 4.3469486,2.8554802 4.6629591,2.5598679 4.9070147,2.3315658 5.0705282,2.2328378 5.3940578,2.1184368 L 5.640625,2.03125 9.8116662,2.02266 13.982707,2.01407 l 3.009214,3.0085858 3.009213,3.0085858 -0.0094,6.1406254 c -0.0089,5.802985 -0.01252,6.150827 -0.06557,6.326158 -0.221752,0.732994 -0.80703,1.291174 -1.510047,1.440134 -0.308898,0.06545 -12.5448856,0.06417 -12.8465538,-0.0013 z M 18.5,8.9921209 C 18.5,8.9791937 17.2625,7.7311769 15.75,6.21875 L 13,3.4688832 V 6.2422541 9.015625 h 2.75 c 1.5125,0 2.75,-0.010577 2.75,-0.023504 z"
     id="path254" />
  <path
     style="fill:#ffffff;stroke:none;stroke-width:0.0110485"
     d="m 4.0220222,10.929772 c 3.466e-4,-4.6741013 0.010738,-7.0128629 0.032205,-7.2483766 0.014385,-0.1578223 0.083875,-0.3674684 0.1887333,-0.5693998 0.042361,-0.081577 0.07702,-0.1569967 0.07702,-0.1675989 0,-0.030389 0.1531193,-0.2275838 0.2625991,-0.3381885 0.3154769,-0.3187185 0.7425249,-0.5319045 1.1571387,-0.5776534 0.062866,-0.00694 1.5988322,-0.01345 4.1763494,-0.01771 l 4.0769123,-0.00674 3.002609,3.0032182 3.002608,3.0032181 -0.0075,3.8364319 -0.0075,3.836432 H 12.00241 4.0216698 Z M 18.387628,9.0003952 18.506489,8.9935144 15.749788,6.2369111 12.993087,3.4803078 v 2.7648897 2.7648897 l 2.63784,-0.00141 c 1.450812,-7.734e-4 2.691327,-0.0045 2.756701,-0.00829 z"
     id="path369" />
  <path
     style="fill:#ffffff;stroke:none;stroke-width:0.00390625"
     d="M 18.458984,8.9523215 C 18.4375,8.9293742 17.219562,7.7094742 15.752455,6.2414325 L 13.084988,3.5722656 h 1.237781 1.237782 l 1.500974,1.5009785 1.500975,1.5009784 v 1.2099591 1.209959 l -0.03223,-4.68e-5 -0.03223,-4.69e-5 -0.03906,-0.041722 z"
     id="path408" />
  <path
     style="fill:#ffffff;stroke:none;stroke-width:0.00390625"
     d="M 18.462941,8.9567563 C 18.443996,8.9361949 17.22666,7.7167125 15.757752,6.2467954 l -2.670743,-2.6725766 1.236761,-9.827e-4 1.236761,-9.827e-4 1.500984,1.5009808 1.500985,1.5009807 v 1.2099628 1.2099629 h -0.03256 -0.03256 z"
     id="path447" />
  <path
     style="fill:#ffffff;stroke:none;stroke-width:0.00390625"
     d="M 17.84375,8.336334 C 17.483887,7.9751785 16.266191,6.755957 15.137761,5.6269531 l -2.051693,-2.0527343 1.237231,-9.827e-4 1.237232,-9.827e-4 1.500984,1.5009808 1.500985,1.5009807 v 1.2099628 1.2099629 l -0.03223,-5.801e-4 -0.03223,-5.8e-4 z"
     id="path486" />
  <path
     style="fill:#ffffff;stroke:none;stroke-width:0.00390625"
     d=""
     id="path525" />
  <path
     style="fill:#ffffff;stroke:none;stroke-width:0.00390625"
     d=""
     id="path564" />
  <path
     style="fill:#ffffff;stroke:none;stroke-width:0.00390625"
     d=""
     id="path603" />
  <path
     style="fill:#ffffff;stroke:none;stroke-width:0.00390625"
     d="M 18.42099,8.9150391 C 18.37895,8.8715331 17.161647,7.6520508 15.715879,6.2050781 l -2.628669,-2.6308593 1.23666,-9.827e-4 1.236661,-9.827e-4 1.500984,1.5009808 1.500985,1.5009807 v 1.2099628 1.2099629 h -0.03253 -0.03253 z"
     id="path642" />
  <path
     style="fill:#ffffff;stroke:none;stroke-width:0.00390625"
     d="M 18.42099,8.9150391 C 18.37895,8.8715331 17.161647,7.6520508 15.715879,6.2050781 l -2.628669,-2.6308593 1.23666,-9.827e-4 1.236661,-9.827e-4 1.500984,1.5009808 1.500985,1.5009807 v 1.2099628 1.2099629 h -0.03253 -0.03253 z"
     id="path681" />
  <path
     style="fill:#ffffff;stroke:#ffffff;stroke-width:0.00390625"
     d="M 18.42099,8.9150391 C 18.37895,8.8715331 17.161647,7.6520508 15.715879,6.2050781 l -2.628669,-2.6308593 1.23666,-9.827e-4 1.236661,-9.827e-4 1.500984,1.5009808 1.500985,1.5009807 v 1.2099628 1.2099629 h -0.03253 -0.03253 z"
     id="path683" />
</svg>
